<svg xmlns="http://www.w3.org/2000/svg" viewBox="0 -0.5 48 48" shape-rendering="crispEdges">
<metadata>Made with Pixels to Svg https://codepen.io/shshaw/pen/XbxvNj</metadata>
<path stroke="rgba(255,255,255,0.00392156862745098)" d="M18 0h1M20 0h2M23 0h1M28 0h1M0 1h1M18 1h4M28 1h1M30 1h3M13 2h1M26 2h2M34 2h2M38 2h1M42 2h1M10 3h2M13 3h1M26 3h2M37 3h1M40 3h1M1 4h1M9 4h3M29 4h3M40 4h1M0 5h1M9 5h1M38 5h2M45 5h1M32 6h1M38 6h2M44 6h2M36 7h4M3 8h1M36 8h4M33 9h2M4 10h2M4 11h2M3 12h2M3 13h2M35 13h2M42 13h1M44 13h1M2 14h2M35 14h2M42 14h1M44 14h1M2 15h2M2 16h2M44 16h1M46 16h1M2 17h2M42 17h2M3 18h1M42 18h2M3 19h1M36 19h2M43 19h1M43 20h1M0 21h1M46 21h1M46 22h1M2 23h1M37 23h2M43 23h2M46 23h1M37 24h2M46 24h1M3 25h2M42 25h1M45 25h1M3 26h2M42 26h1M1 27h1M36 27h2M36 28h1M1 29h1M38 29h2M6 30h1M38 30h2M6 31h1M38 31h2M41 31h1M3 32h1M38 32h4M36 34h1M7 35h2M35 35h2M47 35h1M1 36h1M5 36h2M35 36h1M39 36h4M47 36h1M3 37h4M35 37h2M39 37h1M3 38h2M35 38h2M38 38h1M42 38h2M0 39h1M41 39h3M46 39h2M41 40h1M44 40h1M46 40h1M46 41h1M46 42h1" />
<path stroke="rgba(255,254,255,0.00392156862745098)" d="M19 0h1M22 0h1M1 3h1M46 9h1M34 10h1M46 15h1M1 26h1M37 28h1M40 35h1" />
<path stroke="rgba(255,255,255,0.054901960784313725)" d="M26 0h1M2 33h1" />
<path stroke="rgba(255,255,255,0.01568627450980392)" d="M29 0h1M24 1h2M29 1h1M15 2h1M24 2h2M2 3h1M33 3h1M38 3h2M2 4h1M32 4h2M36 4h4M40 5h2M40 6h2M40 7h3M44 7h2M40 8h6M36 11h6M43 11h5M37 12h2M40 12h8M45 13h1M45 14h1M37 15h2M47 15h1M38 16h1M47 16h1M39 19h1M46 19h2M36 20h4M46 20h2M40 21h2M43 21h1M39 22h6M3 23h1M39 23h3M3 24h2M39 24h3M38 27h3M38 28h3M36 29h2M44 29h2M47 29h1M36 30h2M44 30h4M44 31h2M6 32h2M44 32h2M6 33h2M47 33h1M46 34h2M42 35h2M7 36h2M43 36h1M41 37h2M0 38h1M2 38h1M1 39h3M45 41h1M47 41h1M45 42h1" />
<path stroke="rgba(255,255,255,0.03137254901960784)" d="M30 0h2M34 0h4M40 0h3M36 1h2M12 2h1M33 2h1M47 2h1M12 3h1M30 3h1M44 3h4M44 4h2M36 5h2M43 5h1M36 6h2M43 6h1M7 8h1M1 9h1M4 9h1M41 9h5M41 10h2M44 10h2M39 13h1M39 14h1M0 15h1M39 15h4M45 15h1M39 16h4M45 16h1M38 17h2M46 17h1M0 18h1M38 18h2M46 18h2M0 19h1M45 21h1M47 21h1M45 22h1M47 22h1M45 23h1M45 24h1M43 25h2M39 26h2M43 26h2M47 26h1M46 27h2M3 28h1M46 28h2M3 29h1M36 31h2M46 31h2M36 32h2M46 32h1M0 33h1M40 33h4M2 34h1M40 34h1M42 34h2M2 35h1M39 35h1M41 35h1" />
<path stroke="rgba(255,255,255,0.027450980392156862)" d="M32 0h1M0 6h2M42 27h1M44 27h1M42 28h1M44 28h1" />
<path stroke="rgba(255,255,254,0.00784313725490196)" d="M38 0h1M14 3h1M38 21h1M38 26h1" />
<path stroke="rgba(255,255,255,0.0196078431372549)" d="M39 0h1M5 5h1M47 10h1M0 13h1M36 16h1M36 17h1M41 25h1M38 33h1M38 34h1" />
<path stroke="rgba(255,255,255,0.00784313725490196)" d="M47 0h1M16 1h1M34 1h2M38 1h2M47 1h1M16 2h1M30 2h2M43 2h1M28 3h1M34 3h2M42 3h1M0 4h1M28 4h1M34 4h2M42 4h1M1 5h1M7 5h1M30 5h6M46 5h1M2 6h2M31 6h1M34 6h2M31 7h2M34 7h2M34 8h2M36 9h3M40 9h1M36 10h4M34 11h2M34 12h2M37 13h2M46 13h1M37 14h2M46 14h1M35 15h2M40 17h2M44 17h2M2 18h1M4 18h1M36 18h2M44 18h2M2 19h1M4 19h1M40 19h2M45 19h1M3 20h2M40 20h2M3 21h2M37 21h1M1 22h2M38 22h1M43 24h2M37 25h2M37 26h1M2 28h1M41 28h1M2 29h1M41 29h3M2 30h1M40 30h4M42 31h2M42 32h2M44 33h2M7 34h2M44 34h2M44 35h2M44 36h2M37 37h2M40 37h1M43 37h3M47 37h1M37 38h1M41 38h1M44 38h2M47 38h1M40 39h1M42 40h2M43 41h2" />
<path stroke="rgba(255,255,255,0.07058823529411765)" d="M7 1h1" />
<path stroke="rgba(254,255,255,0.01568627450980392)" d="M15 1h1M42 11h1M36 12h1M39 12h1M39 21h1M42 21h1M0 29h1" />
<path stroke="rgba(255,255,255,0.011764705882352941)" d="M40 1h1M36 3h1M41 3h1M41 4h1M46 6h1M1 13h1M43 13h1M43 14h1M1 24h2M1 25h1M5 27h1M2 36h1M1 38h1M47 42h1" />
<path stroke="rgba(255,255,254,0.011764705882352941)" d="M41 1h1M2 25h1" />
<path stroke="rgba(255,255,254,0.00392156862745098)" d="M14 2h1M44 5h1M44 15h1M47 40h1" />
<path stroke="#000000" d="M18 2h3M15 3h11M12 4h16M10 5h5M17 5h13M9 6h22M9 7h3M13 7h10M24 7h4M29 7h2M9 8h4M14 8h18M7 9h7M15 9h13M29 9h4M6 10h3M10 10h20M31 10h2M6 11h2M9 11h10M21 11h13M5 12h10M16 12h5M25 12h9M5 13h4M10 13h10M29 13h6M4 14h10M15 14h4M30 14h2M33 14h2M4 15h14M31 15h4M4 16h13M33 16h3M4 17h2M7 17h1M9 17h7M33 17h3M5 18h1M7 18h8M33 18h1M35 18h1M5 19h4M10 19h4M34 19h2M5 20h8M34 20h2M5 21h7M14 21h1M16 21h4M28 21h1M30 21h3M35 21h1M5 22h6M20 22h7M33 22h3M5 23h5M12 23h1M22 23h2M34 23h3M5 24h2M8 24h3M22 24h1M24 24h1M36 24h1M6 25h5M12 25h1M22 25h1M34 25h3M5 26h6M25 26h1M33 26h1M35 26h2M6 27h6M14 27h1M26 27h1M32 27h1M34 27h1M6 28h2M9 28h3M13 28h8M22 28h14M6 29h5M34 29h2M7 30h3M34 30h2M7 31h1M9 31h1M8 32h2M35 32h1M8 33h2M35 33h1M9 34h1M35 34h1M9 35h2M16 35h4M21 35h5M28 35h3M34 35h1M9 36h3M34 36h1M7 37h3M11 37h1M33 37h2M5 38h2M8 38h6M33 38h2M4 39h1M9 39h6M32 39h8M1 40h1M3 40h1M8 40h7M32 40h8M0 41h5M6 41h9M32 41h4M38 41h5M0 42h8M9 42h6M32 42h9M43 42h2M0 43h11M13 43h2M32 43h10M45 43h2M5 44h3M9 44h6M32 44h6M39 44h3M47 44h1M6 45h2M9 45h3M13 45h2M32 45h11M7 46h1M9 46h6M32 46h2M35 46h4M40 46h2M7 47h2M11 47h4M32 47h10" />
<path stroke="#010000" d="M21 2h1M15 5h1M12 7h1M9 10h1M30 10h1M15 12h1M9 13h1M6 17h1M6 18h1M9 19h1M15 21h1M27 21h1M36 21h1M36 22h1M24 23h1M12 24h1M24 25h1M21 26h1M12 28h1M21 28h1M27 35h1M12 37h1M36 41h1M12 43h1M12 45h1M39 46h1M9 47h1" />
<path stroke="rgba(255,255,255,0.0392156862745098)" d="M22 2h2M2 7h2M0 26h1M2 26h1" />
<path stroke="rgba(255,255,255,0.03529411764705882)" d="M28 2h1M1 34h1" />
<path stroke="rgba(255,255,254,0.03137254901960784)" d="M32 2h1M47 17h1M47 25h1M47 32h1M41 34h1" />
<path stroke="rgba(255,254,255,0.03137254901960784)" d="M46 2h1M31 3h1M43 10h1M40 25h1" />
<path stroke="rgba(255,255,255,0.043137254901960784)" d="M0 3h1" />
<path stroke="rgba(255,255,254,0.01568627450980392)" d="M32 3h1M38 19h1M44 21h1" />
<path stroke="rgba(255,255,255,0.023529411764705882)" d="M43 3h1M43 4h1M47 5h1M0 9h1M41 13h1M41 14h1M43 15h1M43 16h1M42 19h1M42 20h1M1 32h1M4 35h1" />
<path stroke="#000100" d="M16 5h1M28 7h1M13 8h1M28 9h1M19 11h1M34 18h1M34 21h1M13 22h1M10 23h1M7 24h1M34 24h1M13 26h1M10 34h1M34 34h1M10 37h1M40 40h1M37 41h1M34 46h1M10 47h1" />
<path stroke="rgba(255,255,255,0.06274509803921569)" d="M42 5h1M42 6h1M47 6h1M47 23h1M47 24h1M2 27h2M1 35h1" />
<path stroke="rgba(254,255,255,0.00784313725490196)" d="M33 6h1M39 9h1M45 20h1" />
<path stroke="rgba(255,255,255,0.08235294117647059)" d="M0 7h1M0 11h1M0 31h1" />
<path stroke="#000001" d="M23 7h1M8 8h1M14 9h1M8 11h1M20 11h1M14 14h1M32 14h1M32 16h1M8 17h1M29 21h1M11 22h1M11 24h1M35 24h1M5 25h1M20 27h1M35 27h1M8 28h1M8 31h1M35 31h1M2 40h1M5 41h1M8 42h1M11 43h1M8 44h1M38 44h1M8 45h1M8 46h1" />
<path stroke="rgba(255,254,255,0.01568627450980392)" d="M43 7h1M4 23h1M1 28h1M46 29h1M46 33h1" />
<path stroke="rgba(254,255,255,0.00392156862745098)" d="M0 8h1M33 10h1M36 36h1" />
<path stroke="rgba(255,255,255,0.050980392156862744)" d="M2 8h1M47 9h1M1 21h1M5 32h1M5 33h1" />
<path stroke="rgba(255,255,255,0.058823529411764705)" d="M32 8h1M5 9h1M38 35h1M38 36h1" />
<path stroke="rgba(255,255,254,0.050980392156862744)" d="M2 9h1" />
<path stroke="rgba(238,238,238,0.058823529411764705)" d="M6 9h1" />
<path stroke="rgba(255,254,255,0.00784313725490196)" d="M40 10h1M37 22h1M40 29h1M40 38h1" />
<path stroke="rgba(255,255,255,0.09411764705882353)" d="M2 11h1" />
<path stroke="rgba(255,255,255,0.06666666666666667)" d="M3 11h1M45 26h1M0 27h1M0 30h1" />
<path stroke="#b19f91" d="M21 12h4M20 13h8M19 14h11M18 15h2M21 15h1M24 15h7M17 16h15M16 17h17M15 18h17M14 19h16M31 19h3M14 20h3M18 20h16M12 21h2M20 21h2M23 21h4M12 22h1M23 24h1M11 25h1M23 25h1M11 26h2M22 26h3M34 26h1M12 27h2M21 27h5M33 27h1" />
<path stroke="#b19e91" d="M28 13h1M22 15h1M13 20h1M22 21h1" />
<path stroke="#b19f90" d="M20 15h1M23 15h1M32 18h1M17 20h1M11 23h1" />
<path stroke="#b09f91" d="M30 19h1M33 21h1" />
<path stroke="#3c7b9e" d="M14 22h3M18 22h2M28 22h5M13 23h6M20 23h2M25 23h1M28 23h3M33 23h1M13 24h5M19 24h3M25 24h2M28 24h6M13 25h3M17 25h1M19 25h3M26 25h8M14 26h7M26 26h7M16 27h2M19 27h1M27 27h1M29 27h3M7 38h1M5 39h1M7 39h2M4 40h3M41 42h2M42 43h3M1 44h4M42 44h5M0 45h6M43 45h5M0 46h7M43 46h1M45 46h3M1 47h3M5 47h2M43 47h2M46 47h2" />
<path stroke="#3c7b9f" d="M17 22h1M26 23h1M32 23h1M44 46h1" />
<path stroke="#3d7b9e" d="M27 22h1M18 24h1M27 24h1M18 25h1M15 27h1M18 27h1M6 39h1M0 44h1M0 47h1M45 47h1" />
<path stroke="#3c7a9e" d="M19 23h1M16 25h1M25 25h1M28 27h1M7 40h1M4 47h1" />
<path stroke="#3a7a9c" d="M27 23h1" />
<path stroke="#3c7b9d" d="M31 23h1" />
<path stroke="rgba(254,255,255,0.03137254901960784)" d="M39 25h1" />
<path stroke="rgba(255,255,254,0.0196078431372549)" d="M41 26h1" />
<path stroke="rgba(255,254,255,0.011764705882352941)" d="M4 27h1" />
<path stroke="rgba(254,255,255,0.06274509803921569)" d="M0 28h1" />
<path stroke="#6c4d3a" d="M11 29h23M10 30h11M26 30h2M29 30h5M10 31h3M34 31h1M10 32h2M15 32h1M31 32h3M10 33h3M23 33h1M33 33h2M11 34h2M14 34h4M22 34h3M29 34h4M11 35h5M31 35h3M12 36h3M33 36h1M13 37h1M32 37h1M14 38h1M32 38h1" />
<path stroke="#dc7377" d="M21 30h5M22 31h3M23 32h1" />
<path stroke="#6c4c3a" d="M28 30h1M13 32h1M13 33h1" />
<path stroke="#ffffff" d="M13 31h3M30 31h4M12 32h1M34 32h1M14 33h3M30 33h3M13 34h1M33 34h1M20 35h1M26 35h1" />
<path stroke="#fffeff" d="M16 31h1" />
<path stroke="#c9c7ba" d="M17 31h4M27 31h3M16 32h6M25 32h6M17 33h4M22 33h1M24 33h6M18 34h4M25 34h1M27 34h2" />
<path stroke="#8e3233" d="M21 31h1M25 31h1M22 32h1M24 32h1" />
<path stroke="#c9c7bb" d="M26 31h1M26 34h1" />
<path stroke="#6c4d3b" d="M14 32h1M32 36h1M14 37h1" />
<path stroke="#c8c7ba" d="M21 33h1" />
<path stroke="rgba(255,255,255,0.0784313725490196)" d="M4 34h1" />
<path stroke="#092439" d="M15 36h1M15 37h2M15 38h2M16 39h1M15 40h2M16 41h1M15 42h1M15 43h2M15 44h2M15 45h2M16 46h1M15 47h2" />
<path stroke="#092539" d="M16 36h1M16 42h1" />
<path stroke="#164690" d="M17 36h2M18 37h1M17 38h2M17 39h2M17 41h2M17 42h1M17 43h2M17 44h2M17 45h2M17 46h2M18 47h1" />
<path stroke="#0073c6" d="M19 36h2M20 37h1M19 38h2M19 39h2M19 40h2M19 41h2M19 42h2M19 43h1M19 44h2M19 45h2M19 46h2M20 47h1" />
<path stroke="#22433c" d="M21 36h2M21 37h2M21 38h1M22 39h1M21 40h2M21 41h2M21 42h2M21 43h2M22 44h1M21 45h2M21 46h2M21 47h2" />
<path stroke="#31803e" d="M23 36h2M23 37h2M23 39h2M23 40h2M23 41h2M23 42h1M23 43h2M24 44h1M23 45h1M23 46h2M23 47h2" />
<path stroke="#a6b84a" d="M25 36h2M25 37h2M25 38h2M25 39h2M25 40h2M25 41h2M25 42h2M26 43h1M25 44h2M25 46h2M25 47h2" />
<path stroke="#ac724a" d="M27 36h2M27 37h2M27 38h2M27 39h2M27 40h2M27 41h2M27 42h2M27 43h2M28 44h1M27 45h2M27 46h1M27 47h2" />
<path stroke="#a05744" d="M29 36h2M29 37h2M30 38h1M29 39h2M29 40h2M29 41h2M29 42h2M29 43h2M29 44h2M29 45h2M30 46h1M29 47h2" />
<path stroke="#9b4641" d="M31 36h1M31 37h1M31 39h1M31 40h1M31 41h1M31 42h1M31 44h1M31 45h1M31 46h1M31 47h1" />
<path stroke="#164691" d="M17 37h1M17 40h1M17 47h1" />
<path stroke="#0072c6" d="M19 37h1M19 47h1" />
<path stroke="#22423c" d="M22 38h1" />
<path stroke="#31803f" d="M23 38h1M23 44h1" />
<path stroke="#30803e" d="M24 38h1M24 42h1M24 45h1" />
<path stroke="#a05745" d="M29 38h1M29 46h1" />
<path stroke="#9b4741" d="M31 38h1M31 43h1" />
<path stroke="#082439" d="M15 39h1M15 41h1M15 46h1" />
<path stroke="#23433c" d="M21 39h1M21 44h1" />
<path stroke="#174690" d="M18 40h1M18 42h1" />
<path stroke="#0073c7" d="M20 43h1" />
<path stroke="#a6b94a" d="M25 43h1M25 45h1" />
<path stroke="#ad724a" d="M27 44h1" />
<path stroke="#a6b84b" d="M26 45h1" />
<path stroke="#ac734a" d="M28 46h1" />
<path stroke="#03070c" d="M42 46h1" />
<path stroke="#02070c" d="M42 47h1" />
</svg>